<svg width="14" height="14" viewBox="0 0 14 14" fill="none" xmlns="http://www.w3.org/2000/svg">
<g clip-path="url(#clip0_1001_809)">
<path d="M5.71209 13.894C6.10407 14.125 6.41205 13.971 6.41205 13.5021V8.04943C6.41205 7.58046 6.09707 7.11149 5.71209 6.88051L1.19739 4.07369C0.805416 3.9197 0.497437 4.07369 0.497437 4.46567V9.91831C0.497437 10.3873 0.812416 10.8562 1.19739 11.0872L5.71209 13.894V13.894ZM1.89734 2.3588C1.50537 2.58979 1.50537 2.90477 1.89734 3.13575L6.34205 5.94257C6.73403 6.17355 7.27999 6.17355 7.66497 6.01956L12.1097 3.75871C12.5016 3.52773 12.5016 3.21275 12.1097 2.98176L7.42698 0.174948C7.112 -0.0560372 6.48904 -0.0560372 6.10407 0.174948L1.89734 2.3588ZM7.66497 13.5021C7.66497 13.971 7.97994 14.125 8.36492 13.894L12.8096 11.6332C13.2016 11.4022 13.5096 10.9332 13.5096 10.4643V5.00463C13.5096 4.53566 13.1946 4.38167 12.8096 4.61266L8.36492 6.87351C7.97295 7.10449 7.66497 7.57346 7.66497 8.04243V13.5021V13.5021Z" fill="black"/>
</g>
<defs>
<clipPath id="clip0_1001_809">
<rect width="14" height="14" fill="white"/>
</clipPath>
</defs>
</svg>
