<svg width="16" height="16" viewBox="0 0 16 16" fill="none" xmlns="http://www.w3.org/2000/svg">
<path d="M2.00001 13.3333H14.001L14 2.66667H1.99901L2.00001 13.3333ZM1.99901 2H14.001C14.3687 2 14.6667 2.29667 14.6667 2.66667V13.3333C14.6667 13.7017 14.3693 14 14.001 14H1.99901C1.91149 14.0001 1.8248 13.9829 1.74394 13.9494C1.66307 13.9159 1.58961 13.8668 1.52776 13.8049C1.46592 13.7429 1.41691 13.6694 1.38355 13.5885C1.35019 13.5076 1.33313 13.4209 1.33335 13.3333V2.66667C1.33335 2.29833 1.63068 2 1.99901 2ZM5.12601 10.2357C5.48368 9.929 6.19601 9.66667 6.66968 9.66667H6.99701C7.63035 9.66667 8.49568 9.34733 8.97435 8.937L9.79268 8.23567C10.1503 7.929 10.8627 7.66667 11.3363 7.66667H12.6667C12.7551 7.66667 12.8399 7.63155 12.9024 7.56904C12.9649 7.50652 13 7.42174 13 7.33333C13 7.24493 12.9649 7.16014 12.9024 7.09763C12.8399 7.03512 12.7551 7 12.6667 7H11.3367C10.7033 7 9.83768 7.31933 9.35901 7.72967L8.54068 8.431C8.18268 8.73767 7.47135 9 6.99668 9H6.66935C6.03668 9 5.17068 9.31933 4.69201 9.72967L3.11635 11.08C3.08258 11.1083 3.05477 11.1431 3.03452 11.1822C3.01427 11.2214 3.00199 11.2642 2.99838 11.3081C2.99478 11.352 2.99992 11.3962 3.01351 11.4382C3.02711 11.4801 3.04889 11.5189 3.07758 11.5524C3.10628 11.5858 3.14133 11.6133 3.1807 11.6331C3.22007 11.6529 3.26298 11.6647 3.30695 11.6679C3.35091 11.671 3.39506 11.6654 3.43684 11.6513C3.47862 11.6373 3.5172 11.6151 3.55035 11.586L5.12601 10.2353V10.2357Z" fill="#3D3D3D"/>
<path d="M4.66666 5.83333C4.66666 6.05435 4.75445 6.26631 4.91073 6.42259C5.06701 6.57887 5.27898 6.66667 5.49999 6.66667C5.721 6.66667 5.93297 6.57887 6.08925 6.42259C6.24553 6.26631 6.33332 6.05435 6.33332 5.83333C6.33332 5.61232 6.24553 5.40036 6.08925 5.24408C5.93297 5.0878 5.721 5 5.49999 5C5.27898 5 5.06701 5.0878 4.91073 5.24408C4.75445 5.40036 4.66666 5.61232 4.66666 5.83333Z" fill="#3D3D3D"/>
</svg>
