<svg width="20" height="20" viewBox="0 0 20 20" fill="none" xmlns="http://www.w3.org/2000/svg">
<g clip-path="url(#clip0_946_651)">
<path d="M19.8013 15.4294C19.8679 15.8286 19.7847 16.1879 19.5518 16.5073C19.3189 16.8267 19.0029 17.0196 18.6037 17.0862L16.2083 17.4654C15.8224 17.532 15.4665 17.4488 15.1404 17.2159C14.8144 16.983 14.6181 16.667 14.5516 16.2678L12.5156 3.37295C12.4889 3.17334 12.4989 2.98371 12.5455 2.80406C12.5921 2.62441 12.6686 2.45807 12.7751 2.30503C12.8815 2.152 13.0179 2.02558 13.1843 1.92577C13.3506 1.82597 13.5336 1.75611 13.7332 1.71618L16.1085 1.33692C16.5078 1.27039 16.8671 1.35689 17.1864 1.59642C17.5058 1.83595 17.6988 2.15533 17.7653 2.55455L19.8013 15.4294ZM9.76094 1.25708C10.1602 1.25708 10.4995 1.39681 10.779 1.67626C11.0584 1.95572 11.1981 2.29505 11.1981 2.69427V16.0282C11.1981 16.4275 11.0584 16.7668 10.779 17.0462C10.4995 17.3257 10.1602 17.4654 9.76094 17.4654H7.685C7.28578 17.4654 6.94644 17.3257 6.66698 17.0462C6.38753 16.7668 6.2478 16.4275 6.2478 16.0282V2.69427C6.2478 2.29505 6.35426 1.95572 6.56718 1.67626C6.7801 1.39681 7.09282 1.25708 7.50535 1.25708H9.76094ZM9.76094 11.3174C9.89401 11.3174 10.0071 11.2542 10.1003 11.1278C10.1934 11.0014 10.24 10.8517 10.24 10.6787C10.24 10.4924 10.1934 10.3393 10.1003 10.2196C10.0071 10.0998 9.89401 10.0399 9.76094 10.0399H7.685C7.55192 10.0399 7.43881 10.0998 7.34566 10.2196C7.25251 10.3393 7.20593 10.4924 7.20593 10.6787C7.20593 10.8517 7.25251 11.0014 7.34566 11.1278C7.43881 11.2542 7.55192 11.3174 7.685 11.3174H9.76094ZM9.76094 8.78238C9.89401 8.78238 10.0071 8.71917 10.1003 8.59275C10.1934 8.46633 10.24 8.30997 10.24 8.12367C10.24 7.93737 10.1934 7.78433 10.1003 7.66457C10.0071 7.5448 9.89401 7.48492 9.76094 7.48492H7.685C7.55192 7.48492 7.43881 7.5448 7.34566 7.66457C7.25251 7.78433 7.20593 7.93737 7.20593 8.12367C7.20593 8.30997 7.25251 8.46633 7.34566 8.59275C7.43881 8.71917 7.55192 8.78238 7.685 8.78238H9.76094ZM3.49318 1.25708C3.8924 1.25708 4.23507 1.39681 4.52117 1.67626C4.80728 1.95572 4.95034 2.29505 4.95034 2.69427V16.0282C4.95034 16.4275 4.80728 16.7668 4.52117 17.0462C4.23507 17.3257 3.8924 17.4654 3.49318 17.4654H1.41724C1.01802 17.4654 0.675353 17.3257 0.389245 17.0462C0.103137 16.7668 -0.039917 16.4275 -0.039917 16.0282V2.69427C-0.039917 2.29505 0.103137 1.95572 0.389245 1.67626C0.675353 1.39681 1.01802 1.25708 1.41724 1.25708H3.49318ZM1.49708 6.24733C1.3507 6.24733 1.23093 6.30722 1.13778 6.42698C1.04463 6.54675 0.998056 6.69978 0.998056 6.88609C0.998056 7.05908 1.04463 7.20879 1.13778 7.33521C1.23093 7.46163 1.3507 7.52484 1.49708 7.52484H3.41334C3.55972 7.52484 3.67616 7.46163 3.76266 7.33521C3.84915 7.20879 3.8924 7.05908 3.8924 6.88609C3.8924 6.69978 3.84915 6.54675 3.76266 6.42698C3.67616 6.30722 3.55972 6.24733 3.41334 6.24733H1.49708ZM3.49318 12.5151C3.63956 12.5151 3.756 12.4552 3.8425 12.3354C3.929 12.2157 3.97225 12.0693 3.97225 11.8963C3.97225 11.71 3.929 11.5603 3.8425 11.4472C3.756 11.3341 3.63956 11.2775 3.49318 11.2775H1.49708C1.3507 11.2775 1.23093 11.3341 1.13778 11.4472C1.04463 11.5603 0.998056 11.71 0.998056 11.8963C0.998056 12.0693 1.04463 12.2157 1.13778 12.3354C1.23093 12.4552 1.3507 12.5151 1.49708 12.5151H3.49318ZM3.49318 10.0599C3.63956 10.0599 3.756 10 3.8425 9.88024C3.929 9.76047 3.97225 9.60744 3.97225 9.42113C3.97225 9.23483 3.929 9.0818 3.8425 8.96203C3.756 8.84227 3.63956 8.78238 3.49318 8.78238H1.49708C1.3507 8.78238 1.23093 8.84227 1.13778 8.96203C1.04463 9.0818 0.998056 9.23483 0.998056 9.42113C0.998056 9.60744 1.04463 9.76047 1.13778 9.88024C1.23093 10 1.3507 10.0599 1.49708 10.0599H3.49318Z" fill="black"/>
</g>
<defs>
<clipPath id="clip0_946_651">
<rect width="20" height="20" fill="white"/>
</clipPath>
</defs>
</svg>
