<svg width="20" height="20" viewBox="0 0 20 20" fill="none" xmlns="http://www.w3.org/2000/svg">
<path d="M18.6443 4.61215L16.9053 2.02313C16.7163 1.67521 16.3137 1.28857 15.7616 1.28857H4.2579C3.62538 1.28857 3.21462 1.86848 3.1286 2.0018L1.39302 4.61484C1.32488 4.71742 1.28854 4.83783 1.28854 4.96098V17.7011C1.28854 18.283 1.76194 18.7564 2.34384 18.7564H17.6952C18.2771 18.7564 18.7505 18.283 18.7505 17.7011V4.96098C18.7505 4.83673 18.7135 4.71529 18.6443 4.61215ZM4.17358 2.69002C4.17753 2.68408 4.17647 2.68594 4.17911 2.68164C4.21374 2.63031 4.2711 2.56855 4.30932 2.5398H15.7359C15.7583 2.55756 15.7909 2.59637 15.8097 2.6283C15.8225 2.65617 15.8294 2.66533 15.8478 2.6927L17.3713 4.96098H2.6652L4.17358 2.69002ZM2.53977 17.5052V6.25439H17.4993V17.5052H2.53977Z" fill="black"/>
<path d="M13.8996 8.3888L8.83036 13.458L6.12364 10.7513C5.87797 10.5056 5.47971 10.5056 5.23407 10.7513C4.98842 10.9969 4.98842 11.3952 5.23407 11.6409L8.38557 14.7924C8.63124 15.038 9.0295 15.038 9.27514 14.7924L14.7891 9.27839C15.0348 9.03274 15.0348 8.63448 14.7891 8.38884C14.5435 8.14319 14.1452 8.14317 13.8996 8.3888Z" fill="black"/>
</svg>
