<svg width="16" height="16" viewBox="0 0 16 16" fill="none" xmlns="http://www.w3.org/2000/svg">
<path d="M7.00001 14C6.66668 12.6667 5.33334 9.33332 5.33334 9.33332V2.66666H10.7207C10.9972 2.66663 11.2668 2.75256 11.4923 2.91255C11.7178 3.07254 11.888 3.29868 11.9793 3.55966L13.3793 7.55966C13.6827 8.42632 13.0393 9.33332 12.1207 9.33332H8.66668V12.6667C8.66668 13.6667 8.00001 14 7.00001 14Z" fill="black"/>
<path d="M6.35333 14.1617C6.38938 14.3059 6.47261 14.4339 6.58978 14.5254C6.70695 14.6169 6.85134 14.6666 7 14.6667C7.55133 14.6667 8.136 14.5793 8.596 14.2507C9.1 13.8907 9.33333 13.331 9.33333 12.6667V10H12.1207C13.4983 10 14.4637 8.63967 14.0083 7.33933L12.6083 3.33933C12.4714 2.94795 12.2161 2.60881 11.8779 2.36886C11.5397 2.12891 11.1353 2.00001 10.7207 2H5.33333C5.15652 2 4.98695 2.07024 4.86193 2.19526C4.7369 2.32029 4.66667 2.48986 4.66667 2.66667V9.33333C4.66665 9.41817 4.68283 9.50223 4.71433 9.581L4.729 9.61767C4.79526 9.78406 4.86081 9.95072 4.92567 10.1177C5.05567 10.449 5.23133 10.9043 5.41733 11.401C5.795 12.4077 6.19733 13.5383 6.35333 14.1617ZM6 9.20567V3.33333H10.7207C10.8589 3.33333 10.9938 3.37632 11.1065 3.45635C11.2193 3.53637 11.3044 3.64948 11.35 3.78L12.75 7.78C12.7851 7.88049 12.7957 7.98794 12.7808 8.09334C12.7659 8.19875 12.7259 8.29905 12.6643 8.38587C12.6027 8.47268 12.5212 8.54347 12.4266 8.59232C12.332 8.64118 12.2271 8.66667 12.1207 8.66667H8.66667C8.48986 8.66667 8.32029 8.7369 8.19526 8.86193C8.07024 8.98695 8 9.15652 8 9.33333V12.6667C8 13.0023 7.89967 13.1097 7.82067 13.166C7.753 13.2143 7.64733 13.26 7.49167 13.2913C7.27833 12.597 6.95433 11.702 6.666 10.9327C6.45261 10.3644 6.23427 9.79808 6.011 9.23367L6 9.20567ZM2 9.33333C2 9.51014 2.07024 9.67971 2.19526 9.80474C2.32029 9.92976 2.48986 10 2.66667 10H3.33333C3.51014 10 3.67971 9.92976 3.80474 9.80474C3.92976 9.67971 4 9.51014 4 9.33333V2.66667C4 2.48986 3.92976 2.32029 3.80474 2.19526C3.67971 2.07024 3.51014 2 3.33333 2H2.66667C2.48986 2 2.32029 2.07024 2.19526 2.19526C2.07024 2.32029 2 2.48986 2 2.66667V9.33333Z" fill="black"/>
</svg>
