<svg width="20" height="20" viewBox="0 0 20 20" fill="none" xmlns="http://www.w3.org/2000/svg">
<path d="M14.5 5.5H10.75V9.25H14.5V5.5ZM13 7.75H12.25V7H13V7.75ZM14.5 10.75H10.75V14.5H14.5V10.75ZM13 13H12.25V12.25H13V13ZM9.25 5.5H5.5V9.25H9.25V5.5ZM7.75 7.75H7V7H7.75V7.75Z" fill="black"/>
<path d="M16.3075 2.5H3.6925C3.53579 2.50011 3.38063 2.53108 3.23589 2.59116C3.09115 2.65123 2.95966 2.73922 2.84893 2.85011C2.7382 2.961 2.65039 3.09261 2.59052 3.23743C2.53065 3.38226 2.49989 3.53746 2.5 3.69417V16.3058C2.5 16.965 3.03333 17.4992 3.6925 17.5H16.3075C16.4642 17.4999 16.6194 17.4689 16.7641 17.4088C16.9088 17.3488 17.0403 17.2608 17.1511 17.1499C17.2618 17.039 17.3496 16.9074 17.4095 16.7626C17.4694 16.6177 17.5001 16.4625 17.5 16.3058V3.69417C17.5 3.035 16.9667 2.50083 16.3075 2.5ZM16 16H4V4.075C4.045 4.16667 4.15 4.275 4 4H16V16Z" fill="black"/>
<path d="M9.25 10.75H5.5V14.5H9.25V10.75ZM7.75 13H7V12.25H7.75V13Z" fill="black"/>
</svg>
