<svg width="16" height="16" viewBox="0 0 16 16" fill="none" xmlns="http://www.w3.org/2000/svg">
<path d="M11.166 3.1817C11.0538 3.1817 10.9595 3.14346 10.883 3.06698C10.8065 2.99051 10.7428 2.90128 10.6918 2.79931C10.6408 2.69733 10.6026 2.59281 10.5771 2.48574C10.5516 2.37867 10.5389 2.28944 10.5389 2.21806V0.33667H10.5694C10.6612 0.33667 10.7479 0.346867 10.8295 0.367262C10.9111 0.387656 11.0105 0.436093 11.1278 0.512573C11.245 0.589052 11.3878 0.696123 11.556 0.833786C11.7243 0.971449 11.9359 1.15245 12.1908 1.37679C12.4661 1.62152 12.6854 1.82802 12.8485 1.99627C13.0117 2.16453 13.1366 2.30729 13.2233 2.42456C13.31 2.54183 13.3635 2.64125 13.3839 2.72283C13.4043 2.80441 13.4145 2.87579 13.4145 2.93697V3.1817H11.166V3.1817ZM15.923 10.3861C15.9536 10.4676 15.974 10.5696 15.9842 10.692C15.9944 10.8143 15.9434 10.9316 15.8312 11.0438C15.7802 11.0948 15.7344 11.1432 15.6936 11.1891C15.6528 11.235 15.6171 11.2732 15.5865 11.3038C15.5457 11.3446 15.51 11.3752 15.4794 11.3956L14.1793 10.1107C14.2405 10.0598 14.3093 9.99857 14.3858 9.92719C14.4623 9.85581 14.526 9.79972 14.577 9.75893C14.6993 9.64676 14.8319 9.59833 14.9747 9.61362C15.1174 9.62892 15.2347 9.66206 15.3265 9.71305C15.4284 9.76403 15.5381 9.85326 15.6553 9.98072C15.7726 10.1082 15.8618 10.2433 15.923 10.3861V10.3861ZM10.5236 11.8086C10.7479 11.8086 10.9366 11.7474 11.0895 11.625L8.12211 14.7148H3.90045C3.7067 14.7148 3.4951 14.6587 3.26567 14.5465C3.03623 14.4344 2.82209 14.2865 2.62324 14.103C2.42439 13.9194 2.25869 13.7078 2.12612 13.4682C1.99356 13.2285 1.92728 12.9813 1.92728 12.7263V2.30984C1.92728 2.0957 1.97571 1.87136 2.07259 1.63682C2.16946 1.40228 2.30203 1.19069 2.47028 1.00204C2.63854 0.813392 2.82973 0.655334 3.04388 0.527868C3.25802 0.400403 3.48236 0.33667 3.71689 0.33667H9.57522V2.24866C9.57522 2.4424 9.60581 2.65145 9.66699 2.87579C9.72818 3.10013 9.8225 3.30662 9.94997 3.49527C10.0774 3.68392 10.2431 3.84198 10.4471 3.96944C10.651 4.09691 10.8958 4.16064 11.1813 4.16064H13.4145V9.22358L11.3189 11.3956C11.4311 11.2324 11.4872 11.054 11.4872 10.8602C11.4872 10.5951 11.3929 10.3682 11.2042 10.1796C11.0156 9.99092 10.7887 9.8966 10.5236 9.8966H4.78761C4.52248 9.8966 4.29814 9.99092 4.11459 10.1796C3.93104 10.3682 3.83926 10.5951 3.83926 10.8602C3.83926 11.1254 3.93104 11.3497 4.11459 11.5333C4.29814 11.7168 4.52248 11.8086 4.78761 11.8086H10.5236V11.8086ZM4.78761 6.07263C4.52248 6.07263 4.29814 6.16695 4.11459 6.3556C3.93104 6.54425 3.83926 6.77114 3.83926 7.03627C3.83926 7.30139 3.93104 7.52573 4.11459 7.70928C4.29814 7.89284 4.52248 7.98461 4.78761 7.98461H10.5236C10.7887 7.98461 11.0156 7.89284 11.2042 7.70928C11.3929 7.52573 11.4872 7.30139 11.4872 7.03627C11.4872 6.77114 11.3929 6.54425 11.2042 6.3556C11.0156 6.16695 10.7887 6.07263 10.5236 6.07263H4.78761V6.07263ZM10.5542 13.7359L10.753 13.537L11.1354 13.1546C11.2884 13.0017 11.4566 12.8309 11.6402 12.6422C11.8237 12.4536 12.0073 12.2675 12.1908 12.0839C12.6293 11.6454 13.1239 11.156 13.6745 10.6155L14.9594 11.9004L13.4757 13.3841L12.925 13.9347L12.4203 14.4395C12.2775 14.5822 12.1577 14.7046 12.0608 14.8066C11.9639 14.9085 11.9104 14.9646 11.9002 14.9748C11.8492 15.0156 11.7931 15.059 11.7319 15.1048C11.6708 15.1507 11.6096 15.189 11.5484 15.2196C11.4872 15.2502 11.3929 15.2884 11.2654 15.3343C11.1379 15.3802 11.0079 15.4235 10.8754 15.4643C10.7428 15.5051 10.6153 15.5408 10.493 15.5714C10.3706 15.602 10.2788 15.6224 10.2176 15.6326C10.0953 15.6529 10.0137 15.6376 9.97291 15.5867C9.93212 15.5357 9.92192 15.449 9.94232 15.3266C9.95252 15.2655 9.97291 15.1737 10.0035 15.0513C10.0341 14.9289 10.0698 14.804 10.1106 14.6766C10.1514 14.5491 10.1896 14.4293 10.2253 14.3171C10.261 14.2049 10.289 14.1285 10.3094 14.0877C10.3706 13.9551 10.4522 13.8378 10.5542 13.7359V13.7359Z" fill="black"/>
</svg>
