<svg width="16" height="16" viewBox="0 0 16 16" fill="none" xmlns="http://www.w3.org/2000/svg">
<path d="M3.02499 9.02969C2.94217 9.02969 2.85936 9.02188 2.77655 9.00782C2.27967 8.92188 1.82186 8.5875 1.51874 8.09219C1.25467 7.66094 1.13436 7.15157 1.17811 6.65938C1.22342 6.14844 1.44061 5.71094 1.79061 5.42969C2.1078 5.17344 2.50467 5.07188 2.91092 5.14219C3.4078 5.22813 3.86561 5.5625 4.16874 6.05782C4.4328 6.48907 4.55311 6.99844 4.50936 7.49063C4.46405 8.00157 4.24686 8.43907 3.89686 8.72032C3.64374 8.92344 3.34217 9.02969 3.02499 9.02969ZM2.65936 5.74532C2.48436 5.74532 2.32186 5.80313 2.1828 5.91563C1.96717 6.09063 1.83124 6.37344 1.79999 6.71563C1.76717 7.075 1.8578 7.44844 2.05155 7.76719C2.26092 8.10938 2.56405 8.3375 2.8828 8.39375C3.11092 8.43282 3.32655 8.37813 3.50311 8.23594C3.71874 8.06094 3.85467 7.77813 3.88592 7.43594C3.91874 7.07657 3.82811 6.70313 3.63436 6.38438C3.42499 6.04219 3.12186 5.81407 2.80311 5.75782C2.75467 5.75 2.70624 5.74532 2.65936 5.74532ZM6.09686 6.57032C5.79842 6.57032 5.50155 6.46719 5.24217 6.27032C4.81405 5.94532 4.52811 5.40157 4.45467 4.78125C4.39374 4.2625 4.49061 3.74688 4.72811 3.33125C4.98124 2.88907 5.36092 2.60782 5.79999 2.54063C6.16249 2.48438 6.53592 2.58594 6.84999 2.825C7.27811 3.15 7.56405 3.69375 7.63749 4.31407C7.69842 4.83282 7.60155 5.34844 7.36405 5.76407C7.11092 6.20625 6.73124 6.4875 6.29217 6.55469C6.22811 6.56563 6.16249 6.57032 6.09686 6.57032ZM5.99999 3.15C5.96717 3.15 5.9328 3.15313 5.89686 3.15782C5.64999 3.19532 5.42967 3.36719 5.27342 3.64063C5.10155 3.94063 5.0328 4.32032 5.07811 4.70782C5.12967 5.15313 5.33436 5.55157 5.62342 5.77188C5.74999 5.86875 5.95155 5.975 6.19999 5.93594C6.44686 5.89844 6.66717 5.72657 6.82342 5.45313C6.9953 5.15313 7.06405 4.77344 7.01874 4.38594C6.96717 3.94063 6.76249 3.54219 6.47342 3.32188C6.36561 3.24063 6.19999 3.15 5.99999 3.15ZM12.9515 9.02969C12.6344 9.02969 12.3328 8.92344 12.0812 8.72032C11.7328 8.43907 11.5156 8.00157 11.4687 7.49063C11.425 6.99844 11.5453 6.48907 11.8094 6.05782C12.1125 5.56094 12.5703 5.22813 13.0672 5.14219C13.4719 5.07188 13.8703 5.17344 14.1875 5.42969C14.5359 5.71094 14.7531 6.14844 14.8 6.65938C14.8437 7.15157 14.7234 7.66094 14.4594 8.09219C14.1562 8.58907 13.6984 8.92188 13.2015 9.00782C13.1172 9.02344 13.0344 9.02969 12.9515 9.02969ZM13.3172 5.74532C13.2703 5.74532 13.2219 5.75 13.1734 5.75782C12.8547 5.8125 12.5515 6.04063 12.3422 6.38438C12.1484 6.70157 12.0594 7.075 12.0906 7.43594C12.1203 7.77657 12.2562 8.06094 12.4734 8.23594C12.65 8.37969 12.8656 8.43438 13.0937 8.39375C13.4125 8.33907 13.7156 8.11094 13.925 7.76719C14.1187 7.45 14.2078 7.07657 14.1765 6.71563C14.1469 6.375 14.0109 6.09063 13.7937 5.91563C13.6547 5.80313 13.4922 5.74532 13.3172 5.74532ZM9.94061 6.57032C9.87499 6.57032 9.80936 6.56563 9.74374 6.55469C9.30624 6.4875 8.92499 6.20625 8.67186 5.76407C8.43436 5.34844 8.33749 4.83282 8.39842 4.31407C8.4703 3.69375 8.7578 3.15157 9.18592 2.825C9.49999 2.58594 9.87342 2.48438 10.2359 2.54063C10.6734 2.60782 11.0547 2.88907 11.3078 3.33125C11.5453 3.74688 11.6422 4.2625 11.5812 4.78125C11.5094 5.40157 11.2219 5.94375 10.7937 6.27032C10.5375 6.46719 10.2406 6.57032 9.94061 6.57032ZM10.039 3.15C9.83905 3.15 9.67499 3.24063 9.56561 3.32188C9.27655 3.54219 9.07342 3.93907 9.0203 4.38594C8.97499 4.77344 9.0453 5.15313 9.21561 5.45313C9.37186 5.72657 9.59374 5.89844 9.83905 5.93594C10.0859 5.97344 10.289 5.86719 10.4156 5.77188C10.7047 5.55157 10.9078 5.15469 10.9609 4.70782C11.0062 4.32032 10.9359 3.94063 10.7656 3.64063C10.6094 3.36719 10.3875 3.19532 10.1422 3.15782C10.1062 3.15313 10.0719 3.15 10.039 3.15ZM10.4219 14.0031C10.3906 14.0031 10.3594 14.0016 10.3281 14C9.99999 13.9813 9.68124 13.8688 9.4078 13.6719C8.96874 13.3563 8.4953 13.1969 8.00311 13.1969C7.51092 13.1969 7.03905 13.3563 6.59842 13.6719C6.32499 13.8688 6.00624 13.9813 5.67811 14C5.3703 14.0172 5.05936 13.95 4.78124 13.8078C4.50311 13.6656 4.26717 13.4531 4.09999 13.1953C3.92186 12.9188 3.82655 12.5953 3.82499 12.2578V12.2219C3.82499 10.8469 4.25155 9.55157 5.02499 8.57344C5.40624 8.09063 5.85311 7.71094 6.35155 7.44532C6.87342 7.16563 7.42967 7.025 8.00311 7.025C8.57655 7.025 9.1328 7.16719 9.65467 7.44532C10.1531 7.71094 10.6 8.09063 10.9812 8.57344C11.7547 9.55157 12.1812 10.8469 12.1812 12.2219V12.2578C12.1797 12.5953 12.0844 12.9188 11.9062 13.1953C11.739 13.4547 11.5031 13.6656 11.225 13.8078C10.9734 13.9375 10.6984 14.0031 10.4219 14.0031ZM8.00311 12.5734C8.6203 12.5734 9.23124 12.7781 9.77186 13.1656C10.1219 13.4156 10.5578 13.4484 10.9422 13.2531C11.325 13.0578 11.5547 12.6844 11.5578 12.2563V12.2234C11.5578 9.70313 9.96405 7.65157 8.00467 7.65157C6.0453 7.65157 4.45155 9.70313 4.45155 12.2234V12.2563C4.45467 12.6859 4.68436 13.0578 5.06717 13.2531C5.44999 13.4484 5.88749 13.4156 6.23749 13.1656C6.77499 12.7781 7.38592 12.5734 8.00311 12.5734Z" fill="#1A1A1A"/>
</svg>
