<svg width="16" height="16" viewBox="0 0 16 16" fill="none" xmlns="http://www.w3.org/2000/svg">
<path d="M13.4875 4.93604C13.4844 4.91416 13.4813 4.89385 13.475 4.87197C13.4516 4.78604 13.4141 4.70635 13.3531 4.64541L11.3531 2.64541C11.2594 2.55166 11.1328 2.49854 11 2.49854H5C4.86719 2.49854 4.74062 2.55166 4.64687 2.64541L2.64687 4.64541C2.58594 4.70635 2.54844 4.78604 2.525 4.87197C2.51875 4.89385 2.51563 4.91416 2.5125 4.93604C2.50938 4.95791 2.5 4.97666 2.5 5.0001V12.0595C2.5 12.8548 3.14687 13.5001 3.94062 13.5001H12.0594C12.8531 13.5001 13.5 12.8532 13.5 12.0595V5.0001C13.5 4.97822 13.4906 4.95791 13.4875 4.93604ZM9.55313 10.1532L8.35312 11.3532C8.25625 11.4501 8.12812 11.5001 8 11.5001C7.87188 11.5001 7.74375 11.4517 7.64687 11.3532L6.44688 10.1532C6.25156 9.95791 6.25156 9.64072 6.44688 9.44697C6.64219 9.25322 6.95937 9.25166 7.15312 9.44697L7.5 9.79385V7.0001C7.5 6.72354 7.72344 6.5001 8 6.5001C8.27656 6.5001 8.5 6.72354 8.5 7.0001V9.79385L8.84688 9.44697C9.04219 9.25166 9.35938 9.25166 9.55313 9.44697C9.74688 9.64228 9.74844 9.95791 9.55313 10.1532ZM4.20625 4.5001L5.20625 3.5001H10.7922L11.7922 4.5001H4.20625Z" fill="black"/>
</svg>
