<?xml version="1.0" ?><svg width="2050px" height="2050px" viewBox="0 0 2050 2050" data-name="Layer 2" id="Layer_2" xmlns="http://www.w3.org/2000/svg"><defs><style>.cls-1{fill:#c8c2e9;}.cls-2{fill:#dfdafd;}.cls-3{fill:#b9b1e0;}.cls-4{fill:#4d4c78;}.cls-5{fill:#67baeb;}.cls-6{fill:#de3226;}.cls-7{fill:#231f20;}.cls-8{fill:#f4c23f;}.cls-9{fill:#46a1f8;}.cls-10{fill:#b11a31;}.cls-11{fill:#f4a93f;}.cls-12{fill:#8a87b2;}.cls-13{fill:#83d0fb;}.cls-14{fill:#fad564;}.cls-15{fill:#f44533;}</style></defs><title/><path class="cls-1" d="M511.1,1669.3,346.6,1504.8a15.8,15.8,0,0,1,0-22.4L1500.2,328.9a15.8,15.8,0,0,1,22.4,0L1687,493.3a831.5,831.5,0,1,1-1175.9,1176Zm164.4-186.9a15.8,15.8,0,0,0,0,22.4h0a599,599,0,1,0,847.1-847h0a15.8,15.8,0,0,0-22.4,0Z"/><path class="cls-2" d="M1869.7,768.5A826.4,826.4,0,0,0,1687,493.3L1522.6,328.9a15.8,15.8,0,0,0-22.4,0l-55,54.9a15.8,15.8,0,0,1,22.4,0l164.5,164.5a830.9,830.9,0,0,1,26.8,1147.8c9.6-8.7,18.9-17.6,28.1-26.8a832.2,832.2,0,0,0,182.7-900.8Z"/><path class="cls-3" d="M1581.5,1436.5A598.3,598.3,0,0,0,1567.4,604a15.8,15.8,0,0,0-22.4,0L720.3,1428.7a15.7,15.7,0,0,0-4.4,13.4l784.3-784.3a15.8,15.8,0,0,1,22.4,0,598.4,598.4,0,0,1,58.9,778.7Z"/><path class="cls-3" d="M1731.9,1615.5a830.8,830.8,0,0,1-1176,0L391.4,1451.1a15.7,15.7,0,0,1-4.4-9l-40.4,40.3a15.8,15.8,0,0,0,0,22.4l164.5,164.5a831,831,0,0,0,1175.9,0,836.9,836.9,0,0,0,73.3-83.6C1751.1,1595.8,1741.6,1605.8,1731.9,1615.5Z"/><path class="cls-4" d="M1614,537.9a20.8,20.8,0,0,0,0,29.2,21,21,0,0,0,14.7,6,20.8,20.8,0,0,0,14.6-6l57.5-57.5,1-1.1c-4.8-5.1-9.8-10.2-14.8-15.2l-14.1-14.1a7.5,7.5,0,0,0-1.4,1.2Z"/><path class="cls-4" d="M1772.1,669.4a20.7,20.7,0,1,0,20.7,35.8l36-20.8.9-.6c-6.6-12.1-13.4-24-20.6-35.7l-1,.5Z"/><path class="cls-4" d="M1856.3,857.2a20.7,20.7,0,0,0,5.4,40.7,19.8,19.8,0,0,0,5.3-.7l40.2-10.8h.4c-3.3-13.4-6.8-26.7-10.7-39.9h-.4Z"/><path class="cls-4" d="M1930.3,1060.5H1889a20.7,20.7,0,0,0,0,41.3h41.3c.2-6.8.3-13.6.3-20.5S1930.5,1067.4,1930.3,1060.5Z"/><path class="cls-4" d="M1805.6,1269.9a20.8,20.8,0,0,0,14.6,25.4l76.8,20.5c3.9-13.2,7.4-26.5,10.7-39.9l-76.8-20.6A20.7,20.7,0,0,0,1805.6,1269.9Z"/><path class="cls-4" d="M1766.5,1465.2a20.6,20.6,0,0,0,7.6,28.2l35.4,20.5c7.1-11.8,14-23.7,20.6-35.9l-35.4-20.4A20.7,20.7,0,0,0,1766.5,1465.2Z"/><path class="cls-4" d="M1644.9,1624.5a20.8,20.8,0,0,0,0,29.2l28.7,28.7,13.4-13.1c5.4-5.3,10.6-10.7,15.8-16.2l-28.6-28.6A20.7,20.7,0,0,0,1644.9,1624.5Z"/><path class="cls-4" d="M1486.3,1746.9a20.6,20.6,0,0,0-7.6,28.2l20.4,35.4c12.1-6.6,24.1-13.6,35.8-20.8l-20.4-35.3A20.5,20.5,0,0,0,1486.3,1746.9Z"/><path class="cls-4" d="M1303.9,1784.2a20.8,20.8,0,0,0-17.7,23.3l10.8,79.4a15.5,15.5,0,0,0,.4,2.1c13.4-3.3,26.8-6.9,40.1-10.9l-10.3-76.2A20.8,20.8,0,0,0,1303.9,1784.2Z"/><path class="cls-4" d="M1102.8,1850.7a20.6,20.6,0,0,0-20.7,20.6v41.4H1099c8.2,0,16.3-.1,24.4-.3v-41.2A20.6,20.6,0,0,0,1102.8,1850.7Z"/><path class="cls-4" d="M918.6,1850.3a20.7,20.7,0,0,0-39.9-10.7L868,1879.8a.6.6,0,0,0-.1.4q19.8,5.8,39.9,10.5c0-.1.1-.1.1-.2Z"/><path class="cls-4" d="M726.3,1777a20.7,20.7,0,0,0-35.8-20.6l-20.8,36a9.3,9.3,0,0,0-.5,1c11.7,7.1,23.7,13.9,35.8,20.4l.5-.8Z"/><path class="cls-4" d="M593.8,1622.1a20.7,20.7,0,0,0-29.3-29.2l-63.7,63.7-1.1,1.3,11.4,11.4c5.9,5.9,11.9,11.7,18,17.5l.9-1Z"/><polygon class="cls-5" points="406 1186.6 1218.3 374.3 1062.5 218.5 256.7 1024.3 412.5 1180.1 406 1186.6"/><path class="cls-6" d="M151.7,1129.4a110.2,110.2,0,0,0,0,155.8h0a110.1,110.1,0,0,0,155.7,0l45.1-45.1L196.7,1084.4Z"/><polygon class="cls-7" points="256.7 1024.3 196.7 1084.4 196.7 1084.4 256.7 1024.3 256.7 1024.3"/><polygon class="cls-7" points="406 1186.6 352.5 1240.1 352.5 1240.1 406 1186.6"/><polygon class="cls-8" points="412.5 1180.1 256.7 1024.3 196.7 1084.4 352.5 1240.1 406 1186.6 412.5 1180.1"/><path class="cls-3" d="M1218.3,374.3,1062.5,218.5l205.7-79.7c18.7-7.3,37.1,11.1,29.9,29.8Z"/><polygon class="cls-9" points="1218.3 374.3 1177.3 333.3 371.5 1139.1 412.5 1180.1 406 1186.6 1218.3 374.3"/><path class="cls-10" d="M196.7,1084.4h0l114.7,114.7-45,45a110.1,110.1,0,0,1-132.5,17.8,112.6,112.6,0,0,0,17.8,23.3h0a110.1,110.1,0,0,0,155.7,0l45.1-45.1Z"/><polygon class="cls-11" points="371.5 1139.1 365 1145.6 311.4 1199.1 352.5 1240.1 406 1186.6 412.5 1180.1 371.5 1139.1"/><path class="cls-12" d="M1268.2,138.8l-18.2,7.1-72.7,187.4,41,41,79.8-205.7C1305.3,149.9,1286.9,131.5,1268.2,138.8Z"/><path class="cls-4" d="M536.6,920.3a20.1,20.1,0,0,1-14.2-34.2l488.7-488.7a20,20,0,0,1,28.3,28.3L550.7,914.4A19.9,19.9,0,0,1,536.6,920.3Z"/><path class="cls-4" d="M425,1031.8a19.8,19.8,0,0,1-14.1-5.8,20,20,0,0,1,0-28.3l52.7-52.8a20,20,0,1,1,28.3,28.3L439.2,1026A20.1,20.1,0,0,1,425,1031.8Z"/><rect class="cls-13" height="278.37" rx="24.6" ry="24.6" transform="translate(610.9 -386.4) rotate(45)" width="49.1" x="747.4" y="405.1"/><rect class="cls-13" height="106.15" rx="24.6" ry="24.6" transform="translate(682.6 -213.5) rotate(45)" width="49.1" x="574.4" y="664.1"/><rect class="cls-14" height="61.1" rx="24.6" ry="24.6" transform="translate(828.5 138.8) rotate(45)" width="49.1" x="222.2" y="1038.9"/><rect class="cls-15" height="107.2" rx="24.6" ry="24.6" transform="translate(859.6 207.8) rotate(45)" width="49.1" x="154.4" y="1087.9"/><rect class="cls-2" height="496.31" rx="49.7" ry="49.7" transform="translate(890 -541.8) rotate(45)" width="99.5" x="1049.2" y="555.2"/><rect class="cls-2" height="242.04" rx="49.7" ry="49.7" transform="translate(1022.5 -221.7) rotate(45)" width="99.5" x="729.2" y="1002.4"/></svg>