<svg width="16" height="16" viewBox="0 0 16 16" fill="none" xmlns="http://www.w3.org/2000/svg">
<path d="M10.9067 9.33325C10.96 8.89325 11 8.45325 11 7.99992C11 7.54659 10.96 7.10658 10.9067 6.66658H13.16C13.2667 7.09325 13.3333 7.53992 13.3333 7.99992C13.3333 8.45992 13.2667 8.90658 13.16 9.33325H10.9067ZM9.72668 13.0399C10.1267 12.2999 10.4333 11.4999 10.6467 10.6666H12.6133C11.9733 11.7666 10.9533 12.6199 9.72668 13.0399ZM9.56001 9.33325H6.44001C6.37334 8.89325 6.33334 8.45325 6.33334 7.99992C6.33334 7.54659 6.37334 7.09992 6.44001 6.66658H9.56001C9.62001 7.09992 9.66668 7.54659 9.66668 7.99992C9.66668 8.45325 9.62001 8.89325 9.56001 9.33325ZM8.00001 13.3066C7.44668 12.5066 7.00001 11.6199 6.72668 10.6666H9.27334C9.00001 11.6199 8.55334 12.5066 8.00001 13.3066ZM5.33334 5.33325H3.38668C4.02001 4.22659 5.04668 3.37325 6.26668 2.95992C5.86668 3.69992 5.56668 4.49992 5.33334 5.33325ZM3.38668 10.6666H5.33334C5.56668 11.4999 5.86668 12.2999 6.26668 13.0399C5.04668 12.6199 4.02001 11.7666 3.38668 10.6666ZM2.84001 9.33325C2.73334 8.90658 2.66668 8.45992 2.66668 7.99992C2.66668 7.53992 2.73334 7.09325 2.84001 6.66658H5.09334C5.04001 7.10658 5.00001 7.54659 5.00001 7.99992C5.00001 8.45325 5.04001 8.89325 5.09334 9.33325H2.84001ZM8.00001 2.68659C8.55334 3.48659 9.00001 4.37992 9.27334 5.33325H6.72668C7.00001 4.37992 7.44668 3.48659 8.00001 2.68659ZM12.6133 5.33325H10.6467C10.4333 4.49992 10.1267 3.69992 9.72668 2.95992C10.9533 3.37992 11.9733 4.22659 12.6133 5.33325ZM8.00001 1.33325C4.31334 1.33325 1.33334 4.33325 1.33334 7.99992C1.33334 11.6799 4.32001 14.6666 8.00001 14.6666C11.68 14.6666 14.6667 11.6799 14.6667 7.99992C14.6667 4.31992 11.68 1.33325 8.00001 1.33325Z" fill="#3E3D40"/>
</svg>
