<svg width="16" height="16" viewBox="0 0 16 16" fill="none" xmlns="http://www.w3.org/2000/svg">
<path d="M5 13.0375V7.675C5 7.5125 5.0875 7.3625 5.225 7.275C6.4625 6.525 8.6625 4.6375 8.6625 3.0375C8.6625 2.9625 8.575 2 9.3 2C9.3 2 11.15 2.4375 10 7H13.25C13.25 7 13.9875 6.9375 13.9875 7.7625C13.9875 7.7625 14.025 8.8 12.9375 12.8375C12.9375 12.8375 12.6 14 12.175 14C12.175 14 6.8625 13.5 5.4375 13.5C5.2 13.5 5 13.2875 5 13.0375ZM2.2875 13.575L3.7875 13.5125C3.9125 13.4875 4 13.3875 4 13.2625V7.725C4 7.6 3.9125 7.5 3.7875 7.475L2.2875 7.425C2.1375 7.4 2 7.5125 2 7.675V13.325C1.9875 13.4875 2.125 13.6 2.2875 13.575Z" fill="black"/>
</svg>
