<svg width="16" height="16" viewBox="0 0 16 16" fill="none" xmlns="http://www.w3.org/2000/svg">
<path d="M13.0516 3.92031V12.0813H2.94844V3.92031H13.0516ZM13.8297 3.14219H2.17032V12.8578H13.8281V3.14219H13.8297Z" fill="black"/>
<path d="M2.17032 1.5875V3.14219H1.0047V3.92031H2.94845V1.5875H2.17032ZM13.8297 14.4125V12.8578H14.9953V12.0797H13.0516V14.4125H13.8297ZM7.98439 11.0219H4.64845C4.52657 11.0219 4.3297 10.9766 4.28439 10.9C4.23907 10.8234 4.31407 10.6422 4.37501 10.5359C4.78439 9.91406 5.20939 9.29219 5.61876 8.67031C5.7547 8.47344 5.8922 8.45781 6.1047 8.54844C6.80158 8.88281 7.51564 9.21562 8.22814 9.55C8.42501 9.64062 8.6672 9.57969 8.78907 9.39844C9.16876 8.80625 9.56251 8.23125 9.97189 7.65469C10.0485 7.54844 10.1844 7.38125 10.2906 7.38125C10.4125 7.38125 10.5031 7.57812 10.5484 7.7C10.9281 8.64062 11.2922 9.59531 11.6563 10.5359C11.8078 10.9297 11.7469 11.0219 11.2922 11.0219H7.98439ZM6.75626 6.36562C6.75626 6.82031 6.36251 7.18437 5.90626 7.16875C5.45157 7.15312 5.10314 6.80469 5.10314 6.36562C5.10314 5.91094 5.48282 5.54687 5.95314 5.5625C6.37657 5.57656 6.75626 5.94062 6.75626 6.36562Z" fill="black"/>
</svg>
