<svg width="16" height="16" viewBox="0 0 16 16" fill="none" xmlns="http://www.w3.org/2000/svg">
<path d="M9.49839 12.0007C9.22155 12.0007 8.99847 11.7776 8.99847 11.5007V5.99899C8.99847 5.72215 9.22155 5.49907 9.49839 5.49907C9.77523 5.49907 9.99831 5.72215 9.99831 5.99899V11.4981C9.99831 11.7749 9.77523 12.0007 9.49839 12.0007Z" fill="black"/>
<path d="M6.49891 12.0007C6.22207 12.0007 5.99899 11.7776 5.99899 11.5007V5.99899C5.99899 5.72215 6.22207 5.49907 6.49891 5.49907C6.77574 5.49907 6.99883 5.72215 6.99883 5.99899V11.4981C6.99883 11.7749 6.77574 12.0007 6.49891 12.0007Z" fill="black"/>
<path d="M14.5002 3.49941H12.0007V2.49958C12.0007 1.67176 11.3341 0.999832 10.5117 0.999832H5.49906C4.67124 0.999832 3.99931 1.67176 3.99931 2.49958V3.49941H1.49973C1.2229 3.49941 0.999817 3.72249 0.999817 3.99933C0.999817 4.27616 1.2229 4.49924 1.49973 4.49924H14.5002C14.7771 4.49924 15.0002 4.27616 15.0002 3.99933C15.0002 3.72249 14.7771 3.49941 14.5002 3.49941ZM4.99915 2.49958C4.99915 2.22543 5.22491 1.99966 5.49906 1.99966H10.5117C10.7858 1.99966 11.0008 2.22006 11.0008 2.49958V3.49941H4.99915V2.49958Z" fill="black"/>
<path d="M11.5008 15.0002H4.50195C3.67413 15.0002 3.0022 14.3282 3.0022 13.5004V5.99361C3.0022 5.71678 3.22528 5.4937 3.50211 5.4937C3.77895 5.4937 4.00203 5.71678 4.00203 5.99361V13.5004C4.00203 13.7773 4.2278 14.0003 4.50195 14.0003H11.5035C11.7803 14.0003 12.0034 13.7773 12.0034 13.5004V6.01243C12.0034 5.73559 12.2265 5.51251 12.5033 5.51251C12.7801 5.51251 13.0032 5.73559 13.0032 6.01243V13.5004C13.0005 14.3255 12.3286 15.0002 11.5008 15.0002Z" fill="black"/>
</svg>
