<?xml version="1.0" encoding="iso-8859-1"?>
<!-- Generator: Adobe Illustrator 19.0.0, SVG Export Plug-In . SVG Version: 6.00 Build 0)  -->
<svg version="1.1" id="Layer_1" xmlns="http://www.w3.org/2000/svg" xmlns:xlink="http://www.w3.org/1999/xlink" x="0px" y="0px"
	 viewBox="0 0 490 490" style="enable-background:new 0 0 490 490;" xml:space="preserve">
<g>
	<g id="XMLID_42_">
		<g>
			<polygon style="fill:#CCCCCC;" points="10,395 10,325 10,245 10,165 10,95 10,10 150,10 150,480 10,480 			"/>
			<rect x="340" y="230" style="fill:#F2F2F2;" width="140" height="90"/>
			<rect x="340" y="320" style="fill:#31C0D8;" width="140" height="160"/>
			<polygon style="fill:#E6E6E6;" points="285,420 285,480 205,480 205,420 245,420 			"/>
			<polygon style="fill:#E6E6E6;" points="245,10 285,110 245,110 205,110 			"/>
			<rect x="245" y="110" style="fill:#FFBD48;" width="40" height="310"/>
			<rect x="205" y="110" style="fill:#FFD248;" width="40" height="310"/>
		</g>
		<g>
			<path d="M150,0H10C4.477,0,0,4.477,0,10v470c0,5.523,4.477,10,10,10h140c5.523,0,10-4.477,10-10V10C160,4.477,155.523,0,150,0z
				 M140,470H20v-65h50v-20H20v-50h50v-20H20v-60h50v-20H20v-60h50v-20H20v-50h50V85H20V20h120V470z"/>
			<path d="M294.285,106.286l-40-100C252.766,2.489,249.089,0,245,0s-7.766,2.489-9.285,6.286l-40,100
				c-0.479,1.199-0.708,2.459-0.708,3.714H195v370c0,5.523,4.477,10,10,10h80c5.523,0,10-4.477,10-10V110h-0.007
				C294.993,108.745,294.764,107.485,294.285,106.286z M215,120h20v290h-20V120z M255,120h20v290h-20V120z M245,36.926L270.229,100
				H219.77L245,36.926z M215,470v-40h60v40H215z"/>
			<path d="M480,220H340c-5.523,0-10,4.477-10,10v250c0,5.523,4.477,10,10,10h140c5.523,0,10-4.477,10-10V230
				C490,224.477,485.523,220,480,220z M470,240v70H350v-70H470z M350,470V330h120v140H350z"/>
			<rect x="430" y="390" width="20" height="20"/>
			<rect x="400" y="430" width="50" height="20"/>
		</g>
	</g>
</g>
<g>
</g>
<g>
</g>
<g>
</g>
<g>
</g>
<g>
</g>
<g>
</g>
<g>
</g>
<g>
</g>
<g>
</g>
<g>
</g>
<g>
</g>
<g>
</g>
<g>
</g>
<g>
</g>
<g>
</g>
</svg>
