<?xml version="1.0" encoding="iso-8859-1"?>
<!-- Generator: Adobe Illustrator 19.0.0, SVG Export Plug-In . SVG Version: 6.00 Build 0)  -->
<svg version="1.1" id="Layer_1" xmlns="http://www.w3.org/2000/svg" xmlns:xlink="http://www.w3.org/1999/xlink" x="0px" y="0px"
	 viewBox="0 0 414.48 414.48" style="enable-background:new 0 0 414.48 414.48;" xml:space="preserve">
<g>
	<path style="fill:#EB7830;" d="M302.59,42.734l7.753-17.417c2.159-4.856,6.991-7.997,12.309-7.997c1.909,0,3.763,0.399,5.51,1.188
		l11.893,5.293c3.289,1.465,5.809,4.121,7.097,7.479c1.289,3.359,1.192,7.02-0.273,10.307l-7.752,17.416L302.59,42.734z"/>
	<path style="fill:#EB7830;" d="M187.272,40.54V21.471c0-7.428,6.042-13.471,13.47-13.471h13.07c7.422,0,13.46,6.043,13.46,13.471
		V40.54H187.272z"/>
	<polygon style="fill:#3E81C8;" points="120.789,406.48 111.772,312 298.383,312 289.787,406.48 	"/>
	<polygon style="fill:#EFEFEF;" points="111.782,312 107.399,266.24 302.544,266.24 298.377,312 	"/>
	<polygon style="fill:#3E81C8;" points="107.41,266.24 99.791,186.48 309.793,186.48 302.537,266.24 	"/>
	<rect x="82.292" y="141.48" style="fill:#EB7830;" width="245" height="45"/>
	<polygon style="fill:#F5C525;" points="258.623,141.48 302.587,42.728 339.123,58.996 302.408,141.48 	"/>
	<rect x="187.272" y="40.54" style="fill:#3E81C8;" width="40" height="100.94"/>
	<polygon style="fill:#F5C525;" points="112.733,141.48 66.435,61.277 66.904,23.145 101.081,41.279 158.928,141.48 	"/>
	<g>
		<path style="fill:#231F20;" d="M343.312,16.49l-11.94-5.31c-2.77-1.23-5.7-1.86-8.72-1.86c-8.47,0-16.17,5-19.62,12.74
			l-49.61,111.42h-18.15V21.47c0-11.84-9.63-21.47-21.46-21.47h-13.07c-11.84,0-21.47,9.63-21.47,21.47v112.01h-15.73l-55.54-96.2
			c-0.75-1.3-1.85-2.36-3.17-3.07l-34.19-18.14c-2.46-1.3-5.43-1.23-7.83,0.19s-3.88,3.99-3.92,6.78l-0.46,38.14
			c-0.01,1.44,0.36,2.86,1.08,4.1l39.37,68.2h-16.59c-4.42,0-8,3.58-8,8v45c0,4.42,3.58,8,8,8h10.23l20.31,212.76
			c0.39,4.1,3.84,7.24,7.96,7.24h169c4.14,0,7.59-3.16,7.97-7.28l19.34-212.72h10.19c4.42,0,8-3.58,8-8v-45c0-4.42-3.58-8-8-8
			h-12.57l39.47-88.65C359.012,34.02,354.122,21.31,343.312,16.49z M195.272,21.47c0-3.02,2.45-5.47,5.47-5.47h13.07
			c3.01,0,5.46,2.45,5.46,5.47v11.07h-24L195.272,21.47L195.272,21.47z M195.272,48.54h24v84.94h-24V48.54z M74.462,59.18
			l0.28-22.82l20.56,10.91l49.77,86.21h-27.72L74.462,59.18z M282.482,398.48h-154.42l-7.49-78.48h169.05L282.482,398.48z
			 M291.072,304h-172.02l-2.85-29.76h177.58L291.072,304z M295.232,258.24h-180.55l-6.09-63.76h192.44L295.232,258.24z
			 M319.292,149.48v29h-229v-29H319.292z M297.212,133.48h-26.27l35.7-80.19l21.92,9.76L297.212,133.48z M339.572,38.33l-4.5,10.11
			l-21.92-9.76l4.5-10.11c0.88-1.98,2.84-3.25,5-3.25c0.76,0,1.51,0.16,2.22,0.48l11.93,5.31
			C339.562,32.34,340.802,35.57,339.572,38.33z"/>
	</g>
</g>
<g>
</g>
<g>
</g>
<g>
</g>
<g>
</g>
<g>
</g>
<g>
</g>
<g>
</g>
<g>
</g>
<g>
</g>
<g>
</g>
<g>
</g>
<g>
</g>
<g>
</g>
<g>
</g>
<g>
</g>
</svg>
