<?xml version="1.0" encoding="iso-8859-1"?>
<!-- Generator: Adobe Illustrator 19.0.0, SVG Export Plug-In . SVG Version: 6.00 Build 0)  -->
<svg version="1.1" id="Layer_1" xmlns="http://www.w3.org/2000/svg" xmlns:xlink="http://www.w3.org/1999/xlink" x="0px" y="0px"
	 viewBox="0 0 512 512" style="enable-background:new 0 0 512 512;" xml:space="preserve">
<rect x="306.57" y="354.953" transform="matrix(-0.7071 0.7071 -0.7071 -0.7071 906.4882 377.2645)" style="fill:#AD4826;" width="137.08" height="42.838"/>
<rect x="336.846" y="385.269" transform="matrix(-0.7071 0.7071 -0.7071 -0.7071 979.609 407.6083)" style="fill:#E66032;" width="137.08" height="42.838"/>
<path style="fill:#FADFD6;" d="M469.014,373.338l-96.925,96.934l31.692,31.692c13.383,13.383,35.084,13.383,48.467,0l48.467-48.467
	c13.383-13.383,13.383-35.084,0-48.467L469.014,373.338z"/>
<polygon style="fill:#E66032;" points="160.049,64.373 111.711,112.703 361.602,359.595 408.433,312.756 "/>
<polygon style="fill:#EB805B;" points="63.115,161.298 311.499,409.69 361.602,359.595 111.711,112.703 "/>
<polygon style="fill:#AD4826;" points="1.249,3.371 41.114,98.489 96.692,42.911 "/>
<polygon style="fill:#FADFD6;" points="41.114,98.489 63.115,161.298 160.049,64.364 96.692,42.911 "/>
<path style="fill:#F5B945;" d="M62.773,495.803l-48.467-48.467c-13.383-13.383-13.383-35.084,0-48.467L403.146,10.037
	c13.383-13.383,35.084-13.383,48.467,0l48.467,48.467c13.383,13.383,13.383,35.084,0,48.467L111.24,495.803
	C97.857,509.186,76.155,509.186,62.773,495.803z"/>
<ellipse style="fill:#FFFFFF;" cx="414.014" cy="97.764" rx="18.849" ry="18.849"/>
<g>
	
		<rect x="328.781" y="86.456" transform="matrix(-0.7071 0.7071 -0.7071 -0.7071 655.1948 -47.0812)" style="fill:#E66032;" width="17.135" height="51.397"/>
	
		<rect x="298.499" y="120.289" transform="matrix(-0.7071 0.7071 -0.7071 -0.7071 633.4859 46.7197)" style="fill:#E66032;" width="17.135" height="68.54"/>
	
		<rect x="256.094" y="159.154" transform="matrix(-0.7071 0.7071 -0.7071 -0.7071 582.5163 128.4188)" style="fill:#E66032;" width="17.135" height="51.397"/>
	
		<rect x="225.803" y="192.993" transform="matrix(-0.7071 0.7071 -0.7071 -0.7071 560.7952 222.2369)" style="fill:#E66032;" width="17.135" height="68.54"/>
	
		<rect x="183.386" y="231.842" transform="matrix(-0.7071 0.7071 -0.7071 -0.7071 509.7938 303.9177)" style="fill:#E66032;" width="17.135" height="51.397"/>
	
		<rect x="153.101" y="265.678" transform="matrix(-0.7071 0.7071 -0.7071 -0.7071 488.0814 397.7273)" style="fill:#E66032;" width="17.135" height="68.54"/>
	
		<rect x="110.725" y="304.544" transform="matrix(-0.7071 0.7071 -0.7071 -0.7071 437.1617 479.4056)" style="fill:#E66032;" width="17.135" height="51.397"/>
	
		<rect x="80.403" y="338.405" transform="matrix(-0.7072 0.707 -0.707 -0.7072 415.3755 573.3308)" style="fill:#E66032;" width="17.135" height="68.54"/>
</g>
<g>
</g>
<g>
</g>
<g>
</g>
<g>
</g>
<g>
</g>
<g>
</g>
<g>
</g>
<g>
</g>
<g>
</g>
<g>
</g>
<g>
</g>
<g>
</g>
<g>
</g>
<g>
</g>
<g>
</g>
</svg>
