<?xml version="1.0" encoding="iso-8859-1"?>
<!-- Generator: Adobe Illustrator 19.0.0, SVG Export Plug-In . SVG Version: 6.00 Build 0)  -->
<svg version="1.1" id="Layer_1" xmlns="http://www.w3.org/2000/svg" xmlns:xlink="http://www.w3.org/1999/xlink" x="0px" y="0px"
	 viewBox="0 0 512 512" style="enable-background:new 0 0 512 512;" xml:space="preserve">
<g transform="translate(1 1)">
	<path style="fill:#FFDD09;" d="M148.683,502.467h238.933V229.4H148.683V502.467z"/>
	<g>
		<path style="fill:#FCC309;" d="M387.616,502.467H148.683c-13.653,0-25.6-11.093-25.6-25.6v-8.533h290.133v8.533
			C413.216,491.373,402.123,502.467,387.616,502.467"/>
		<path style="fill:#FCC309;" d="M123.083,263.533h290.133V229.4H123.083V263.533z"/>
	</g>
	<path style="fill:#FFDD09;" d="M336.416,229.4h51.2l41.813-165.547L379.083,52.76L336.416,229.4z"/>
	<path style="fill:#FCC309;" d="M430.283,26.307l-8.533,35.84l-34.987-7.68l9.387-35.84c1.707-5.12,5.973-7.68,11.093-6.827
		l15.36,3.413C427.723,16.067,431.136,21.187,430.283,26.307"/>
	<path style="fill:#15A143;" d="M216.949,109.933h51.2V7.533h-51.2V109.933z"/>
	<path style="fill:#1CD759;" d="M225.483,229.4h34.133V109.933h-34.133V229.4z"/>
	<path style="fill:#33A9F8;" d="M79.563,23.747l60.587,75.947l-46.933,20.48L79.563,23.747z"/>
	<path style="fill:#54C9FD;" d="M195.616,229.4L140.149,99.693l-46.933,20.48L140.149,229.4H195.616z"/>
	<path style="fill:#FFFFFF;" d="M123.083,229.4v247.467c0,14.507,11.093,25.6,25.6,25.6V229.4H123.083z"/>
	<path style="fill:#FD9808;" d="M387.616,229.4v273.067c14.507,0,25.6-11.093,25.6-25.6V229.4H387.616z"/>
	<path style="fill:#54C9FD;" d="M370.549,365.933c0,56.32-46.08,102.4-102.4,102.4s-102.4-46.08-102.4-102.4
		s46.08-102.4,102.4-102.4S370.549,309.613,370.549,365.933"/>
	<path style="fill:#FFDD09;" d="M268.149,297.667l21.333,38.4l48.64,6.827l-34.987,34.133l8.533,47.787l-43.52-22.187l-43.52,23.04
		l8.533-47.787l-34.987-34.133l48.64-6.827L268.149,297.667z"/>
	<path d="M293.749,33.133h-25.6c-5.12,0-8.533-3.413-8.533-8.533s3.413-8.533,8.533-8.533h25.6c5.12,0,8.533,3.413,8.533,8.533
		S298.869,33.133,293.749,33.133z"/>
	<path d="M293.749,92.867c-5.12,0-8.533-3.413-8.533-8.533V24.6c0-5.12,3.413-8.533,8.533-8.533s8.533,3.413,8.533,8.533v59.733
		C302.283,89.453,298.869,92.867,293.749,92.867z"/>
	<path d="M310.816,186.733c-0.853,0-1.707,0-2.56,0c-4.267-1.707-6.827-5.973-5.973-10.24L336.416,65.56
		c0.853-2.56,3.413-5.12,5.973-5.973l34.133-8.533c4.267-0.853,9.387,1.707,10.24,5.973s-1.707,9.387-5.973,10.24l-29.867,7.68
		L319.349,180.76C317.643,184.173,314.229,186.733,310.816,186.733z"/>
	<path d="M268.149,118.467h-51.2c-5.12,0-8.533-3.413-8.533-8.533V7.533c0-5.12,3.413-8.533,8.533-8.533h51.2
		c5.12,0,8.533,3.413,8.533,8.533v102.4C276.683,115.053,273.269,118.467,268.149,118.467z M225.483,101.4h34.133V16.067h-34.133
		V101.4z"/>
	<path d="M93.216,128.707c-1.707,0-2.56,0-4.267-0.853c-2.56-1.707-4.267-3.413-4.267-5.973L71.029,25.453
		c-0.853-4.267,1.707-7.68,5.12-9.387c3.413-1.707,7.68,0,9.387,2.56l60.587,75.947c2.56,2.56,2.56,5.12,2.56,7.68
		c-0.853,2.56-2.56,5.12-5.12,5.973l-46.933,20.48C94.923,128.707,94.069,128.707,93.216,128.707z M92.363,53.613l7.68,54.613
		l26.453-11.093L92.363,53.613z"/>
	<path d="M387.616,237.933h-51.2c-2.56,0-5.12-0.853-6.827-3.413c-1.707-1.707-1.707-4.267-1.707-6.827L370.549,50.2
		c0.853-4.267,5.973-7.68,10.24-5.973l50.347,11.093c2.56,0.853,4.267,1.707,5.12,4.267c0.853,1.707,1.707,4.267,0.853,6.827
		l-40.96,164.693C395.296,235.373,391.883,237.933,387.616,237.933z M347.509,220.867h33.28l37.547-151.04l-33.28-7.68
		L347.509,220.867z"/>
	<path d="M259.616,237.933h-34.133c-5.12,0-8.533-3.413-8.533-8.533V109.933c0-5.12,3.413-8.533,8.533-8.533h34.133
		c5.12,0,8.533,3.413,8.533,8.533V229.4C268.149,234.52,264.736,237.933,259.616,237.933z M234.016,220.867h17.067v-102.4h-17.067
		V220.867z"/>
	<path d="M195.616,237.933h-55.467c-3.413,0-6.827-1.707-7.68-5.12L85.536,123.587c-0.853-1.707-0.853-4.267,0-6.827
		c0.853-1.707,2.56-3.413,4.267-4.267l46.933-20.48c4.267-1.707,9.387,0,11.093,4.267l55.467,129.707
		c0.853,2.56,0.853,5.973-0.853,7.68C200.736,235.373,199.029,237.933,195.616,237.933z M146.123,220.867h36.693L135.883,111.64
		l-31.573,13.653L146.123,220.867z"/>
	<path d="M421.749,70.68c-0.853,0-0.853,0-1.707,0L385.056,63c-2.56-0.853-4.267-1.707-5.12-4.267
		c-0.853-1.707-1.707-4.267-0.853-6.827l9.387-35.84c2.56-9.387,11.947-15.36,21.333-12.8l15.36,3.413
		c5.12,0.853,8.533,4.267,11.093,7.68c2.56,4.267,3.413,8.533,2.56,13.653l-8.533,35.84C429.429,68.12,426.016,70.68,421.749,70.68z
		 M397.856,47.64l17.92,4.267l5.973-27.307l0,0v-0.853l-15.36-4.267c-0.853,0-0.853,0-0.853,0.853L397.856,47.64z"/>
	<path d="M413.216,476.867H123.083c-5.12,0-8.533-3.413-8.533-8.533v-204.8c0-5.12,3.413-8.533,8.533-8.533h290.133
		c5.12,0,8.533,3.413,8.533,8.533v204.8C421.749,473.453,418.336,476.867,413.216,476.867z M131.616,459.8h273.067V272.067H131.616
		V459.8z"/>
	<path d="M387.616,511H148.683c-18.773,0-34.133-15.36-34.133-34.133v-8.533c0-5.12,3.413-8.533,8.533-8.533h290.133
		c5.12,0,8.533,3.413,8.533,8.533v8.533C421.749,495.64,406.389,511,387.616,511z M131.616,476.867L131.616,476.867
		c0,9.387,7.68,17.067,17.067,17.067h238.933c9.387,0,17.067-7.68,17.067-17.067l0,0H131.616z"/>
	<path d="M413.216,272.067H123.083c-5.12,0-8.533-3.413-8.533-8.533V229.4c0-5.12,3.413-8.533,8.533-8.533h290.133
		c5.12,0,8.533,3.413,8.533,8.533v34.133C421.749,268.653,418.336,272.067,413.216,272.067z M131.616,255h273.067v-17.067H131.616
		V255z"/>
	<path d="M224.629,434.2c-1.707,0-3.413-0.853-5.12-1.707c-2.56-1.707-4.267-5.12-3.413-8.533l7.68-43.52l-31.573-30.72
		c-2.56-2.56-3.413-5.973-2.56-8.533c0.853-3.413,3.413-5.12,6.827-5.973l44.373-6.827l19.627-34.987
		c3.413-5.12,11.947-5.12,14.507,0l19.627,34.987l44.373,6.827c3.413,0.853,5.973,2.56,6.827,5.973c0.853,3.413,0,6.827-2.56,8.533
		l-31.573,30.72l7.68,43.52c0.853,3.413-0.853,6.827-3.413,8.533s-5.973,2.56-9.387,0.853l-38.4-21.333l-39.253,20.48
		C228.043,433.347,226.336,434.2,224.629,434.2z M268.149,394.093c1.707,0,2.56,0,4.267,0.853l28.16,14.507l-5.12-30.72
		c-0.853-2.56,0.853-5.973,2.56-7.68l21.333-22.187l-30.72-4.267c-2.56,0-5.12-1.707-5.973-4.267l-14.507-25.6l-14.507,25.6
		c-1.707,2.56-3.413,4.267-5.973,4.267l-30.72,4.267l22.187,22.187c1.707,1.707,2.56,5.12,2.56,7.68l-5.12,30.72l28.16-14.507
		C265.589,394.093,266.443,394.093,268.149,394.093z"/>
	<path d="M268.149,476.867c-61.44,0-110.933-49.493-110.933-110.933S206.709,255,268.149,255s110.933,49.493,110.933,110.933
		S329.589,476.867,268.149,476.867z M268.149,272.067c-52.053,0-93.867,41.813-93.867,93.867s41.813,93.867,93.867,93.867
		s93.867-41.813,93.867-93.867S320.203,272.067,268.149,272.067z"/>
</g>
<g>
</g>
<g>
</g>
<g>
</g>
<g>
</g>
<g>
</g>
<g>
</g>
<g>
</g>
<g>
</g>
<g>
</g>
<g>
</g>
<g>
</g>
<g>
</g>
<g>
</g>
<g>
</g>
<g>
</g>
</svg>
