<svg width="14" height="14" viewBox="0 0 14 14" fill="none" xmlns="http://www.w3.org/2000/svg">
<g clip-path="url(#clip0_969_47)">
<path d="M3.486 6.13191C3.738 6.13191 3.95267 6.22058 4.13 6.39791C4.30733 6.57525 4.396 6.78991 4.396 7.04191C4.396 7.28458 4.30733 7.49691 4.13 7.67891C3.95267 7.86091 3.738 7.95191 3.486 7.95191C3.234 7.95191 3.01933 7.86091 2.842 7.67891C2.66467 7.49691 2.576 7.28458 2.576 7.04191C2.576 6.78991 2.66467 6.57525 2.842 6.39791C3.01933 6.22058 3.234 6.13191 3.486 6.13191ZM10.542 0.909912C10.9527 0.909912 11.3167 0.982245 11.634 1.12691C11.9513 1.27158 12.2197 1.45825 12.439 1.68691C12.6583 1.91558 12.8263 2.17458 12.943 2.46391C13.0597 2.75325 13.118 3.03791 13.118 3.31791V10.4719C13.118 10.6866 13.069 10.8966 12.971 11.1019C12.873 11.3072 12.7423 11.4939 12.579 11.6619C12.4157 11.8299 12.229 11.9652 12.019 12.0679C11.809 12.1706 11.592 12.2219 11.368 12.2219V4.39591C11.368 4.15325 11.3213 3.92691 11.228 3.71691C11.1347 3.50691 11.0087 3.32258 10.85 3.16391C10.6913 3.00525 10.507 2.87925 10.297 2.78591C10.087 2.69258 9.86067 2.64591 9.618 2.64591H1.75C1.75 2.44058 1.79667 2.23525 1.89 2.02991C1.98333 1.82458 2.10933 1.63791 2.268 1.46991C2.42667 1.30191 2.61333 1.16658 2.828 1.06391C3.04267 0.961245 3.27133 0.909912 3.514 0.909912H10.542V0.909912ZM9.324 3.52791C9.744 3.52791 10.0427 3.64225 10.22 3.87091C10.3973 4.09958 10.486 4.40525 10.486 4.78791V13.0339C10.486 13.2672 10.388 13.4866 10.192 13.6919C9.996 13.8972 9.74867 13.9999 9.45 13.9999H0.966C0.714 13.9999 0.49 13.8972 0.294 13.6919C0.098 13.4866 0 13.2392 0 12.9499V4.54991C0 4.25125 0.0816667 4.00625 0.245 3.81491C0.408333 3.62358 0.625333 3.52791 0.896 3.52791H9.324V3.52791ZM8.75 5.65591C8.75 5.55325 8.71733 5.46925 8.652 5.40391C8.58667 5.33858 8.50267 5.30591 8.4 5.30591H2.086C1.98333 5.30591 1.89933 5.33858 1.834 5.40391C1.76867 5.46925 1.736 5.55325 1.736 5.65591V8.77791C1.82 8.88058 1.897 8.99491 1.967 9.12091C2.037 9.24691 2.12333 9.36591 2.226 9.47791C2.32867 9.58991 2.464 9.68558 2.632 9.76491C2.8 9.84425 3.03333 9.88391 3.332 9.88391C3.77067 9.88391 4.12767 9.81391 4.403 9.67391C4.67833 9.53391 4.921 9.35658 5.131 9.14191C5.341 8.92725 5.537 8.69625 5.719 8.44891C5.901 8.20158 6.118 7.96825 6.37 7.74891C6.622 7.52958 6.93467 7.34291 7.308 7.18891C7.68133 7.03491 8.162 6.94858 8.75 6.92991V5.65591V5.65591Z" fill="black"/>
</g>
<defs>
<clipPath id="clip0_969_47">
<rect width="14" height="14" fill="white"/>
</clipPath>
</defs>
</svg>
