<svg width="20" height="20" viewBox="0 0 20 20" fill="none" xmlns="http://www.w3.org/2000/svg">
<path d="M18.3594 11.6406L16.875 10.5156C16.8906 10.3594 16.9062 10.1875 16.9062 10C16.9062 9.8125 16.8906 9.64062 16.875 9.48438L18.3594 8.35938C18.7656 8.04688 18.875 7.5 18.6094 7.03125L16.9531 4.23438C16.7656 3.90625 16.4062 3.70312 16.0312 3.70312C15.9062 3.70312 15.7969 3.71875 15.6719 3.76562L13.9062 4.45312C13.6094 4.25 13.2969 4.07812 12.9844 3.9375L12.7187 2.14062C12.6406 1.625 12.2031 1.25 11.6719 1.25H8.32811C7.79686 1.25 7.35936 1.625 7.28124 2.125L7.03124 3.9375C6.71874 4.07812 6.42186 4.25 6.10936 4.45312L4.34374 3.76562C4.21874 3.71875 4.09374 3.70312 3.96874 3.70312C3.59374 3.70312 3.23436 3.89062 3.06249 4.21875L1.39061 7.03125C1.12499 7.46875 1.23436 8.04688 1.64061 8.35938L3.12499 9.48438C3.10936 9.67188 3.09374 9.84375 3.09374 10C3.09374 10.1562 3.09374 10.3281 3.12499 10.5156L1.64061 11.6406C1.23436 11.9531 1.12499 12.5 1.39061 12.9688L3.04686 15.7656C3.23436 16.0938 3.59374 16.2969 3.96874 16.2969C4.09374 16.2969 4.20311 16.2812 4.32811 16.2344L6.09374 15.5469C6.39061 15.75 6.70311 15.9219 7.01561 16.0625L7.28124 17.8594C7.34374 18.3594 7.79686 18.75 8.32811 18.75H11.6719C12.2031 18.75 12.6406 18.375 12.7187 17.875L12.9844 16.0625C13.2969 15.9219 13.5937 15.75 13.9062 15.5469L15.6719 16.2344C15.7969 16.2812 15.9219 16.2969 16.0469 16.2969C16.4219 16.2969 16.7812 16.1094 16.9531 15.7812L18.625 12.9531C18.875 12.5 18.7656 11.9531 18.3594 11.6406ZM13.75 10C13.75 12.0625 12.0625 13.75 9.99999 13.75C7.93749 13.75 6.24999 12.0625 6.24999 10C6.24999 7.9375 7.93749 6.25 9.99999 6.25C12.0625 6.25 13.75 7.9375 13.75 10Z" fill="black"/>
</svg>
