<svg width="16" height="16" viewBox="0 0 16 16" fill="none" xmlns="http://www.w3.org/2000/svg">
<path d="M7.96256 1.63913C7.58688 1.63913 7.24501 1.84579 7.08478 2.1697L5.56541 5.25473L2.0705 5.7632C1.71139 5.81483 1.41268 6.05567 1.29735 6.38287C1.18202 6.71175 1.26903 7.074 1.52284 7.32089L4.08404 9.82286L3.4901 13.2919C3.42966 13.642 3.58436 13.9922 3.8879 14.1973C4.05503 14.3085 4.25047 14.3658 4.44661 14.3658C4.60752 14.3658 4.76947 14.3271 4.91622 14.2512L7.96291 12.6461L11.0103 14.2511C11.1567 14.3271 11.3183 14.3658 11.4789 14.3658C11.6754 14.3658 11.8708 14.3085 12.0379 14.1973C12.3415 13.9922 12.4958 13.642 12.4358 13.2919L11.8418 9.82285L14.4033 7.32088C14.6568 7.07381 14.7441 6.71174 14.6285 6.38286C14.5128 6.05566 14.2141 5.81483 13.855 5.76318L10.3601 5.25473L8.84068 2.1697C8.68151 1.84581 8.33894 1.63913 7.96256 1.63913Z" fill="black"/>
</svg>
