<svg width="16" height="16" viewBox="0 0 16 16" fill="none" xmlns="http://www.w3.org/2000/svg">
<path d="M2.62497 7.87813C2.6406 7.19531 2.78122 6.53281 3.04528 5.90938C3.3156 5.26875 3.7031 4.69531 4.19685 4.2C4.6906 3.70469 5.2656 3.31719 5.90622 3.04688C6.56872 2.76719 7.27185 2.625 7.99841 2.625C8.72497 2.625 9.4281 2.76719 10.089 3.04688C10.7281 3.31719 11.3031 3.70469 11.7968 4.2C11.9515 4.35469 12.0968 4.51875 12.2312 4.69063L11.2906 5.425C11.2078 5.48906 11.2359 5.62031 11.3375 5.64531L14.0828 6.31719C14.1609 6.33594 14.2375 6.27656 14.2375 6.19688L14.25 3.37031C14.25 3.26562 14.1297 3.20625 14.0484 3.27187L13.1672 3.96094C11.9656 2.42344 10.0968 1.4375 7.99685 1.4375C4.41716 1.4375 1.50466 4.30625 1.43747 7.87187C1.43591 7.94219 1.49216 8 1.56247 8H2.49997C2.56872 8 2.62341 7.94531 2.62497 7.87813ZM14.4375 8H13.5C13.4312 8 13.3765 8.05469 13.375 8.12187C13.3593 8.80469 13.2187 9.46719 12.9547 10.0906C12.6843 10.7312 12.2968 11.3063 11.8031 11.8C11.3093 12.2937 10.7343 12.6828 10.0937 12.9531C9.43122 13.2328 8.7281 13.375 8.00153 13.375C7.27497 13.375 6.57185 13.2328 5.90935 12.9531C5.27028 12.6828 4.69528 12.2953 4.20153 11.8C4.04685 11.6453 3.90153 11.4812 3.76716 11.3094L4.70778 10.575C4.7906 10.5109 4.76247 10.3797 4.66091 10.3547L1.9156 9.68281C1.83747 9.66406 1.76091 9.72344 1.76091 9.80313L1.74997 12.6313C1.74997 12.7359 1.87028 12.7953 1.95153 12.7297L2.83278 12.0406C4.03435 13.5766 5.9031 14.5625 8.0031 14.5625C11.5843 14.5625 14.4953 11.6922 14.5625 8.12813C14.564 8.05781 14.5078 8 14.4375 8Z" fill="#3E3D40"/>
</svg>
