<svg width="16" height="16" viewBox="0 0 16 16" fill="none" xmlns="http://www.w3.org/2000/svg">
<path d="M10.9067 9.33334C10.96 8.89334 11 8.45334 11 8.00001C11 7.54668 10.96 7.10668 10.9067 6.66668H13.16C13.2667 7.09334 13.3334 7.54001 13.3334 8.00001C13.3334 8.46001 13.2667 8.90668 13.16 9.33334H10.9067ZM9.72671 13.04C10.1267 12.3 10.4334 11.5 10.6467 10.6667H12.6134C11.9734 11.7667 10.9534 12.62 9.72671 13.04ZM9.56004 9.33334H6.44004C6.37337 8.89334 6.33337 8.45334 6.33337 8.00001C6.33337 7.54668 6.37337 7.10001 6.44004 6.66668H9.56004C9.62004 7.10001 9.66671 7.54668 9.66671 8.00001C9.66671 8.45334 9.62004 8.89334 9.56004 9.33334ZM8.00004 13.3067C7.44671 12.5067 7.00004 11.62 6.72671 10.6667H9.27337C9.00004 11.62 8.55337 12.5067 8.00004 13.3067ZM5.33337 5.33334H3.38671C4.02004 4.22668 5.04671 3.37334 6.26671 2.96001C5.86671 3.70001 5.56671 4.50001 5.33337 5.33334ZM3.38671 10.6667H5.33337C5.56671 11.5 5.86671 12.3 6.26671 13.04C5.04671 12.62 4.02004 11.7667 3.38671 10.6667ZM2.84004 9.33334C2.73337 8.90668 2.66671 8.46001 2.66671 8.00001C2.66671 7.54001 2.73337 7.09334 2.84004 6.66668H5.09337C5.04004 7.10668 5.00004 7.54668 5.00004 8.00001C5.00004 8.45334 5.04004 8.89334 5.09337 9.33334H2.84004ZM8.00004 2.68668C8.55337 3.48668 9.00004 4.38001 9.27337 5.33334H6.72671C7.00004 4.38001 7.44671 3.48668 8.00004 2.68668ZM12.6134 5.33334H10.6467C10.4334 4.50001 10.1267 3.70001 9.72671 2.96001C10.9534 3.38001 11.9734 4.22668 12.6134 5.33334ZM8.00004 1.33334C4.31337 1.33334 1.33337 4.33334 1.33337 8.00001C1.33337 11.68 4.32004 14.6667 8.00004 14.6667C11.68 14.6667 14.6667 11.68 14.6667 8.00001C14.6667 4.32001 11.68 1.33334 8.00004 1.33334Z" fill="#3E3D40"/>
</svg>
