<svg width="16" height="16" viewBox="0 0 16 16" fill="none" xmlns="http://www.w3.org/2000/svg">
<g clip-path="url(#clip0_4_158)">
<path d="M14.08 0H1.92C0.832 0 0 0.832 0 1.92V14.08C0 15.104 0.832 16 1.92 16H14.08C15.168 16 16 15.104 16 14.08V1.92C16 0.832 15.168 0 14.08 0ZM15.36 14.08C15.36 14.784 14.784 15.36 14.08 15.36H1.92C1.216 15.36 0.64 14.784 0.64 14.08V1.92C0.64 1.216 1.216 0.64 1.92 0.64H14.08C14.784 0.64 15.36 1.216 15.36 1.92V14.08Z" fill="#666666"/>
<path d="M2.56001 2.56C2.24001 2.56 1.92001 2.24 1.92001 1.92V3.2C1.92001 3.52 2.24001 3.84 2.56001 3.84C2.88001 3.84 3.20001 3.52 3.20001 3.2V2.56H2.56001ZM3.20001 1.92V2.56H3.84001C4.16001 2.56 4.48001 2.24 4.48001 1.92C4.48001 1.6 4.16001 1.28 3.84001 1.28H2.56001C2.88001 1.28 3.20001 1.6 3.20001 1.92Z" fill="#9EB9FD"/>
<path d="M2.56001 2.56H3.20001V1.92C3.20001 1.6 2.88001 1.28 2.56001 1.28C2.24001 1.28 1.92001 1.6 1.92001 1.92C1.92001 2.24 2.24001 2.56 2.56001 2.56Z" fill="#9EB9FD"/>
<path d="M7.936 4.48H4.16C3.968 4.48 3.84 4.608 3.84 4.8V4.928C3.84 5.12 3.968 5.248 4.16 5.248H7.616V4.8C7.616 4.608 7.744 4.48 7.936 4.48ZM11.84 4.48H8.064C8.256 4.48 8.384 4.608 8.384 4.8V5.248H11.84C12.032 5.248 12.16 5.12 12.16 4.928V4.8C12.16 4.608 12.032 4.48 11.84 4.48ZM7.616 12.48C7.616 12.672 7.744 12.8 7.936 12.8H8.064C8.256 12.8 8.384 12.672 8.384 12.48V5.248H7.616V12.48Z" fill="#666666"/>
<path d="M8.064 4.48H7.936C7.744 4.48 7.616 4.608 7.616 4.8V5.248H8.384V4.8C8.384 4.608 8.256 4.48 8.064 4.48Z" fill="#666666"/>
</g>
<defs>
<clipPath id="clip0_4_158">
<rect width="16" height="16" fill="white"/>
</clipPath>
</defs>
</svg>
