<svg width="16" height="16" viewBox="0 0 16 16" fill="none" xmlns="http://www.w3.org/2000/svg">
<path d="M14.3641 5.19063C14.011 4.35625 13.5047 3.60469 12.8609 2.96094C12.2172 2.31719 11.4672 1.81094 10.6313 1.45781C9.76564 1.09219 8.84689 0.90625 7.90001 0.90625C6.95314 0.90625 6.03439 1.09219 5.16876 1.45781C4.33439 1.81094 3.58282 2.31562 2.93907 2.96094C2.29532 3.60469 1.78907 4.35469 1.43595 5.19063C1.07345 6.05625 0.887512 6.975 0.887512 7.92188C0.887512 8.86875 1.07345 9.7875 1.43907 10.6531C1.7922 11.4875 2.29689 12.2391 2.9422 12.8828C3.58595 13.5266 4.33595 14.0328 5.17189 14.3859C6.03751 14.7516 6.9547 14.9375 7.90314 14.9375C8.85001 14.9375 9.76876 14.7516 10.6344 14.3859C11.4688 14.0328 12.2203 13.5266 12.8641 12.8828C13.5078 12.2391 14.0141 11.4891 14.3672 10.6531C14.7328 9.7875 14.9188 8.87031 14.9188 7.92188C14.9188 6.97344 14.7297 6.05625 14.3641 5.19063ZM7.90158 13.9234C4.5922 13.9234 1.90001 11.2312 1.90001 7.92188C1.90001 4.6125 4.5922 1.92031 7.90158 1.92031C11.2109 1.92031 13.9031 4.6125 13.9031 7.92188C13.9031 11.2312 11.2109 13.9234 7.90158 13.9234Z" fill="black"/>
<path d="M11.2375 8.24844C10.9875 8.24844 10.7734 8.43125 10.7375 8.67969C10.5313 10.0578 9.34063 11.1172 7.90469 11.1172C6.46876 11.1172 5.27657 10.0578 5.06876 8.67969C5.03126 8.43281 4.81876 8.25 4.56876 8.25C4.25782 8.25 4.02188 8.52656 4.06876 8.83438C4.19063 9.64844 4.56876 10.4 5.16094 10.9922C5.89376 11.725 6.86719 12.1281 7.90313 12.1281C8.93907 12.1281 9.91407 11.725 10.6453 10.9922C11.2391 10.4 11.6156 9.64844 11.7375 8.83438C11.7844 8.525 11.5484 8.24844 11.2375 8.24844ZM5.45626 6.85C5.94063 6.85 6.33438 6.45781 6.33438 5.97188C6.33438 5.4875 5.94219 5.09375 5.45626 5.09375C4.97188 5.09375 4.57813 5.48594 4.57813 5.97188C4.57813 6.45781 4.97032 6.85 5.45626 6.85ZM10.35 6.85C10.8344 6.85 11.2281 6.45781 11.2281 5.97188C11.2281 5.4875 10.8359 5.09375 10.35 5.09375C9.86563 5.09375 9.47188 5.48594 9.47188 5.97188C9.47188 6.45781 9.86563 6.85 10.35 6.85Z" fill="black"/>
</svg>
